<svg xmlns="http://www.w3.org/2000/svg" viewBox="0 0 28.35 28.35"><path d="M21.3 17.756l-1.862.836c-.472.212-.95.049-1.128-.469l-.685-2.001c-.329-.959 1.155-1.368 1.481-.418l.066.194c1.751-4.817-3.512-9.031-7.821-6.199-.836.549-1.606-.813-.775-1.359 5.602-3.682 12.042 1.969 10.038 8.023.36-.126.749-.055.961.315.193.339.108.906-.275 1.078zm-12.056-5.11c-.022-.065-.045-.129-.066-.194-1.751 4.817 3.512 9.031 7.821 6.199.836-.55 1.605.813.775 1.359-5.603 3.682-12.043-1.969-10.039-8.024-.359.127-.748.055-.959-.315-.194-.337-.108-.904.275-1.076l1.862-.836c.472-.213.95-.048 1.128.47l.686 2c.327.959-1.157 1.367-1.483.417z" fill-rule="evenodd" clip-rule="evenodd" fill="#41414f"/></svg>