<svg xmlns="http://www.w3.org/2000/svg" width="150" height="30"><defs><style>.cls-1{fill-rule:evenodd}.cls-2{font-size:412.46px;font-family:Myriad Pro}.cls-3{font-size:100px;fill:#231f20;font-family:Arial;font-weight:700}</style></defs><title>WebVision_logo</title><path class="cls-1" d="M151.04 80.93c0-.51-1 .36-1.43.54C93.19 102.83 40.52 143.71 0 204.82l52.29 6.11q38.29-59.37 97.49-84.92c.41-.17 1.23-.09 1.23-.53z"/><path class="cls-1" d="M308.46 147.05c28 0 50.38 24.28 50.38 61.66s-22.86 58.57-50.89 58.57-50.89-21.19-50.89-58.57 23.38-61.66 51.4-61.66M148.8 1.19h388.13v394.67H148.8l1.74-270.52 14.51-5.73c3.32-1.18 6.68-2.27 10.09-3.31a261.31 261.31 0 0 1 64.15-10.48c-85.21 52-58.45 172.51 3.29 217.92 67.77 49.86 204.48 9.51 158-161.74l-25 10c25.44 124.5-58.37 147.19-101.39 124.82-52.37-27.27-74.5-100-18.73-158.17 67-69.88 193.28 10.68 212.31 82.82 3.71 14.06-10.46 29.95-17.16 39.51l6.67 11.68 16.89-16c7.07-6.69 22.63-19.49 14.27-43.13C441.19 80.07 292.8 39.79 175.09 72.55q-5.05 1.41-10.09 3l-14.51 5.13z"/><text class="cls-2" transform="translate(619.47 362.43)">W</text><text class="cls-2" transform="translate(929.82 362.43)">e</text><text class="cls-2" transform="translate(1111.5 362.43)">b</text><text class="cls-2" transform="translate(1337.72 362.43)">V</text><text class="cls-2" transform="translate(1552.81 362.43)">i</text><text class="cls-2" transform="translate(1636.72 362.43)">s</text><text class="cls-2" transform="translate(1779.22 362.43)">i</text><text class="cls-2" transform="translate(1846.64 362.43)">o</text><text class="cls-2" transform="translate(2048.1 362.43)">n</text><text class="cls-3" transform="translate(2250.44 85.79)">TM</text></svg>