<?xml version="1.0" encoding="iso-8859-1"?>
<!-- Generator: Adobe Illustrator 19.2.1, SVG Export Plug-In . SVG Version: 6.00 Build 0)  -->
<svg version="1.1" id="Layer_1" xmlns="http://www.w3.org/2000/svg" xmlns:xlink="http://www.w3.org/1999/xlink" x="0px" y="0px"
	 viewBox="0 0 28.35 28.35" style="enable-background:new 0 0 28.35 28.35;" xml:space="preserve">
<path style="fill-rule:evenodd;clip-rule:evenodd;fill:#41414F;" d="M21.3,17.756c-0.621,0.279-1.241,0.557-1.862,0.836
	c-0.472,0.212-0.95,0.049-1.128-0.469c-0.228-0.667-0.457-1.333-0.685-2.001c-0.329-0.959,1.155-1.368,1.481-0.418
	c0.022,0.065,0.044,0.13,0.066,0.194c1.751-4.817-3.512-9.031-7.821-6.199c-0.836,0.549-1.606-0.813-0.775-1.359
	c5.602-3.682,12.042,1.969,10.038,8.023c0.36-0.126,0.749-0.055,0.961,0.315C21.768,17.017,21.683,17.584,21.3,17.756z
	 M9.244,12.646c-0.022-0.065-0.045-0.129-0.066-0.194c-1.751,4.817,3.512,9.031,7.821,6.199c0.836-0.55,1.605,0.813,0.775,1.359
	c-5.603,3.682-12.043-1.969-10.039-8.024c-0.359,0.127-0.748,0.055-0.959-0.315c-0.194-0.337-0.108-0.904,0.275-1.076
	c0.621-0.279,1.241-0.558,1.862-0.836c0.472-0.213,0.95-0.048,1.128,0.47c0.228,0.667,0.457,1.333,0.686,2
	C11.054,13.188,9.57,13.596,9.244,12.646z"/>
</svg>
